<?xml version="1.0" encoding="UTF-8" standalone="no"?>
<svg
   xmlns:dc="http://purl.org/dc/elements/1.1/"
   xmlns:cc="http://creativecommons.org/ns#"
   xmlns:rdf="http://www.w3.org/1999/02/22-rdf-syntax-ns#"
   xmlns:svg="http://www.w3.org/2000/svg"
   xmlns="http://www.w3.org/2000/svg"
   xmlns:sodipodi="http://sodipodi.sourceforge.net/DTD/sodipodi-0.dtd"
   xmlns:inkscape="http://www.inkscape.org/namespaces/inkscape"
   width="6.2803154mm"
   height="7.4126039mm"
   viewBox="0 0 6.2803154 7.4126038"
   version="1.1"
   id="svg8"
   inkscape:version="1.0.1 (3bc2e813f5, 2020-09-07)"
   sodipodi:docname="supported_platforms.svg">
  <defs
     id="defs2">
    <inkscape:path-effect
       effect="fillet_chamfer"
       id="path-effect1576"
       is_visible="true"
       lpeversion="1"
       satellites_param="F,0,0,1,0,13.49375,0,1 @ F,0,0,1,0,13.49375,0,1 @ F,0,0,1,0,13.49375,0,1 @ F,0,0,1,0,13.49375,0,1"
       unit="px"
       method="auto"
       mode="F"
       radius="51"
       chamfer_steps="1"
       flexible="false"
       use_knot_distance="true"
       apply_no_radius="true"
       apply_with_radius="true"
       only_selected="false"
       hide_knots="false" />
  </defs>
  <sodipodi:namedview
     id="base"
     pagecolor="#1c1c1c"
     bordercolor="#666666"
     borderopacity="1.0"
     inkscape:pageopacity="0"
     inkscape:pageshadow="2"
     inkscape:zoom="4"
     inkscape:cx="27.778384"
     inkscape:cy="16.183978"
     inkscape:document-units="mm"
     inkscape:current-layer="layer1"
     inkscape:document-rotation="0"
     showgrid="false"
     inkscape:window-width="2560"
     inkscape:window-height="1361"
     inkscape:window-x="-9"
     inkscape:window-y="-9"
     inkscape:window-maximized="1"
     fit-margin-top="0"
     fit-margin-left="0"
     fit-margin-right="0"
     fit-margin-bottom="0" />
  <metadata
     id="metadata5">
    <rdf:RDF>
      <cc:Work
         rdf:about="">
        <dc:format>image/svg+xml</dc:format>
        <dc:type
           rdf:resource="http://purl.org/dc/dcmitype/StillImage" />
        <dc:title></dc:title>
      </cc:Work>
    </rdf:RDF>
  </metadata>
  <g
     inkscape:label="Ebene 1"
     inkscape:groupmode="layer"
     id="layer1"
     transform="translate(-102.77724,-249.23541)">
    <path
       id="path1856"
       style="fill:#ffffff;fill-opacity:1;stroke:none;stroke-width:0.265;stroke-miterlimit:4;stroke-dasharray:none;stroke-opacity:1;paint-order:markers stroke fill"
       d="m 107.0625,249.24609 c -0.84801,0.0767 -1.56062,0.79798 -1.70508,1.60938 -1.39861,-0.40383 -2.69375,1.00404 -2.57226,2.36328 0.009,1.01625 0.41127,2.00343 1.04882,2.78711 0.52216,0.52855 0.67338,0.4918 0.97071,0.63281 0.62518,0.0894 1.20494,-0.5027 1.79883,-0.0703 1.11702,0.38023 1.88071,-0.79163 2.25586,-1.66602 0.41291,-0.62365 0.14085,-0.87861 -0.44964,-1.14626 -0.55524,-0.5112 -0.12275,-1.31607 0.45915,-1.58516 0.3963,-0.25616 -0.33279,-0.75419 -0.55363,-0.97503 -0.5386,-0.33117 -0.26514,-0.15984 -0.73853,-0.38334 -0.31565,-0.0419 0.17116,-0.60799 0.12354,-1.03544 0.0277,-0.5798 -0.39907,-0.5577 -0.63772,-0.53102 z"
       sodipodi:nodetypes="sccccccccccccs" />
    <path
       d="m 104.59176,255.99823 c -0.12515,-0.0836 -0.23627,-0.186 -0.32914,-0.30427 -0.10134,-0.1225 -0.19526,-0.25136 -0.28152,-0.38471 -0.20267,-0.29633 -0.36115,-0.62044 -0.47095,-0.96202 -0.1323,-0.39741 -0.19659,-0.77788 -0.19659,-1.15014 0,-0.4154 0.09,-0.77788 0.26511,-1.08215 0.12965,-0.23813 0.32279,-0.43736 0.55563,-0.57732 0.22489,-0.14023 0.48683,-0.21696 0.75141,-0.22225 0.0926,0 0.19315,0.0132 0.29898,0.0397 0.0767,0.0212 0.16934,0.0556 0.28311,0.0979 0.14552,0.0556 0.22489,0.09 0.25135,0.0979 0.0847,0.0318 0.15611,0.045 0.21167,0.045 0.0423,0 0.10319,-0.0132 0.17065,-0.0344 0.0384,-0.0132 0.11113,-0.037 0.21432,-0.082 0.10213,-0.037 0.18309,-0.0688 0.24738,-0.0926 0.0979,-0.0291 0.19262,-0.0556 0.27781,-0.0688 0.10319,-0.0159 0.20559,-0.0212 0.30375,-0.0132 0.18785,0.0132 0.35983,0.0529 0.51329,0.11112 0.26987,0.10848 0.48763,0.27781 0.65008,0.51858 -0.0688,0.0423 -0.13229,0.0915 -0.19182,0.14552 -0.12886,0.11378 -0.23813,0.24871 -0.32544,0.3982 -0.11377,0.20373 -0.17198,0.43392 -0.17039,0.66675 0.004,0.28655 0.0767,0.53843 0.22225,0.75671 0.10239,0.15875 0.23918,0.29475 0.40587,0.4064 0.082,0.0556 0.15399,0.0939 0.22225,0.11906 -0.0318,0.0992 -0.0667,0.19579 -0.10716,0.29104 -0.0918,0.21352 -0.20108,0.41805 -0.33073,0.61119 -0.1143,0.16669 -0.20426,0.29104 -0.27252,0.37306 -0.10636,0.127 -0.20902,0.22225 -0.31221,0.29025 -0.11377,0.0754 -0.24738,0.11536 -0.38417,0.11536 -0.0926,0.004 -0.18521,-0.008 -0.27358,-0.0336 -0.0767,-0.0251 -0.1524,-0.0534 -0.22648,-0.0855 -0.0775,-0.0355 -0.1577,-0.0656 -0.23945,-0.09 -0.10054,-0.0265 -0.20373,-0.0392 -0.30798,-0.0389 -0.10583,0 -0.20902,0.0132 -0.30691,0.0384 -0.082,0.0233 -0.1614,0.0519 -0.23998,0.086 -0.11113,0.0463 -0.18389,0.0767 -0.22622,0.09 -0.0857,0.0254 -0.17357,0.0408 -0.26194,0.0463 -0.15732,0.003 -0.28866,-0.0793 -0.38973,-0.12258 z m 1.81346,-4.88421 c -0.17992,0.09 -0.35084,0.12806 -0.52203,0.11536 -0.0264,-0.17092 0,-0.34661 0.0714,-0.53896 0.0635,-0.16404 0.14817,-0.31221 0.26458,-0.4445 0.12171,-0.13758 0.26723,-0.25135 0.43127,-0.33337 0.17463,-0.09 0.34132,-0.13759 0.50007,-0.14552 0.0212,0.17991 0,0.35718 -0.0662,0.54768 -0.0603,0.16934 -0.15028,0.32544 -0.26458,0.46567 -0.1151,0.13758 -0.25797,0.25136 -0.41963,0.33338 z"
       id="path1755"
       style="stroke:none;stroke-width:0.265;stroke-miterlimit:4;stroke-dasharray:none;stroke-opacity:1;paint-order:markers stroke fill"
       sodipodi:nodetypes="ccccsccccccsccccccccccccccccccccccccccccccccccccc" />
  </g>
</svg>
