<?xml version="1.0" encoding="UTF-8" standalone="no"?>
<svg
   xmlns:dc="http://purl.org/dc/elements/1.1/"
   xmlns:cc="http://creativecommons.org/ns#"
   xmlns:rdf="http://www.w3.org/1999/02/22-rdf-syntax-ns#"
   xmlns:svg="http://www.w3.org/2000/svg"
   xmlns="http://www.w3.org/2000/svg"
   xmlns:sodipodi="http://sodipodi.sourceforge.net/DTD/sodipodi-0.dtd"
   xmlns:inkscape="http://www.inkscape.org/namespaces/inkscape"
   role="img"
   viewBox="0 0 27.986202 23.999999"
   version="1.1"
   id="svg2471"
   sodipodi:docname="opengl.svg"
   width="27.986202"
   height="24"
   inkscape:version="1.0.1 (3bc2e813f5, 2020-09-07)">
  <metadata
     id="metadata2477">
    <rdf:RDF>
      <cc:Work
         rdf:about="">
        <dc:format>image/svg+xml</dc:format>
        <dc:type
           rdf:resource="http://purl.org/dc/dcmitype/StillImage" />
        <dc:title>OpenGL icon</dc:title>
      </cc:Work>
    </rdf:RDF>
  </metadata>
  <defs
     id="defs2475">
    <inkscape:path-effect
       effect="fillet_chamfer"
       id="path-effect3043"
       is_visible="true"
       lpeversion="1"
       satellites_param="F,0,0,1,0,1,0,1 @ F,0,0,1,0,1,0,1 @ F,0,0,1,0,1,0,1 @ F,0,0,1,0,1,0,1 @ F,0,0,1,0,1,0,1 @ F,0,0,1,0,1,0,1 @ F,0,0,1,0,1,0,1 @ F,0,0,1,0,1,0,1 @ F,0,0,1,0,1,0,1 @ F,0,0,1,0,1,0,1 @ F,0,0,1,0,1,0,1 @ F,0,0,1,0,1,0,1"
       unit="px"
       method="auto"
       mode="F"
       radius="1"
       chamfer_steps="1"
       flexible="false"
       use_knot_distance="true"
       apply_no_radius="true"
       apply_with_radius="true"
       only_selected="false"
       hide_knots="false" />
  </defs>
  <sodipodi:namedview
     pagecolor="#3a3a3a"
     bordercolor="#666666"
     borderopacity="1"
     objecttolerance="10"
     gridtolerance="10"
     guidetolerance="10"
     inkscape:pageopacity="0"
     inkscape:pageshadow="2"
     inkscape:window-width="2560"
     inkscape:window-height="1361"
     id="namedview2473"
     showgrid="false"
     fit-margin-top="0"
     fit-margin-left="0"
     fit-margin-right="0"
     fit-margin-bottom="0"
     inkscape:zoom="12.997558"
     inkscape:cx="15.879682"
     inkscape:cy="2.5776275"
     inkscape:window-x="-9"
     inkscape:window-y="-9"
     inkscape:window-maximized="1"
     inkscape:current-layer="svg2471"
     inkscape:document-rotation="0" />
  <title
     id="title2467">OpenGL icon</title>
  <path
     id="path3040"
     style="fill:#ffffff;fill-opacity:1"
     d="M 9.279287,5.0188363 C 6.6640102,5.3152196 3.9975001,6.1383859 2.0407137,7.9112592 1.6316523,8.281874 1.0286588,8.9529833 0.74686643,9.4268939 -0.12309035,10.889963 -0.25110844,12.766306 0.45803979,14.312059 c 0.22986255,0.501039 0.76609081,1.22786 1.14262371,1.631365 1.7055671,1.827742 4.1943617,2.757398 6.650321,3.18441 0.5440527,0.09459 1.4343932,0.19624 1.9857895,0.226486 3.283606,0.180121 6.721034,-0.467514 9.430897,-2.349267 0.453504,-0.314918 1.240532,-0.654722 1.79207,-0.681983 1.273133,-0.06293 2.554368,-0.01058 3.832354,-0.0084 0.549066,9.38e-4 1.441848,-0.01257 1.994087,-0.0057 0.386598,0.0048 0.700021,-0.442426 0.700021,-0.994711 v -2.819531 c 0,-0.552285 -0.44767,-1.006421 -0.999919,-1.012721 -0.05896,-6.73e-4 -0.11755,-0.0013 -0.175745,-0.0019 -0.552249,-0.0058 -1.000092,-0.371994 -1.000108,-0.823357 -1.4e-5,-0.392588 -9e-6,-1.1585343 -9e-6,-1.710819 0,-0.5522934 -0.447665,-1.0112946 -0.999923,-1.0088282 -1.146841,0.00512 -2.296485,0.048617 -3.437569,-0.013924 C 20.824861,7.8931456 20.042297,7.5458559 19.588446,7.2315135 17.190761,5.570852 14.181743,4.9168497 11.274953,4.9081556 10.722708,4.9065038 9.828007,4.9566511 9.279287,5.0188363 Z"
     sodipodi:nodetypes="ccccccccccccc"
     inkscape:path-effect="#path-effect3043"
     inkscape:original-d="M 10.275265,4.9303025 C 7.0306155,5.1419861 3.553311,6.0958893 1.3397184,8.6236619 -0.26598528,10.393199 -0.47529528,13.240531 0.96719652,15.170555 2.8476482,17.795826 6.1584968,18.895587 9.240109,19.274052 c 3.899553,0.414066 8.151153,-0.308803 11.222656,-2.875 1.928848,-0.204638 3.883308,-0.04247 5.823438,-0.0957 0.997397,0 1.063679,0.01094 1.7,0.01094 v -4.819531 c -0.778581,-0.01021 -1.518403,-0.02074 -2.175635,-0.02074 0,-1.495868 -1.46e-4,0.619108 -1.46e-4,-1.528084 V 7.9459375 C 24.001478,7.8994153 22.177268,8.0537973 20.382687,7.8385057 17.618185,5.5098462 13.8074,4.764096 10.275265,4.9303025 Z" />
  <path
     d="m 9.9072028,11.527146 v 0.376 h 0.009 a 0.696,0.696 0 0 1 0.3620002,-0.336 c 0.165,-0.07 0.346,-0.105 0.543,-0.105 0.219,0 0.411,0.039 0.574,0.118 0.163,0.079 0.298,0.185 0.406,0.319 a 1.4,1.4 0 0 1 0.244,0.464 c 0.055,0.175 0.082,0.361 0.082,0.558 0,0.197 -0.027,0.383 -0.08,0.558 a 1.325,1.325 0 0 1 -0.241,0.459 1.126,1.126 0 0 1 -0.406,0.308 1.345,1.345 0 0 1 -0.568,0.113 1.457,1.457 0 0 1 -0.488,-0.091 0.984,0.984 0 0 1 -0.239,-0.132 0.722,0.722 0 0 1 -0.1890002,-0.207 h -0.009 v 1.432 h -0.471 v -3.835 h 0.471 z m 1.6710002,0.986 a 1.01,1.01 0 0 0 -0.159,-0.33 0.78,0.78 0 0 0 -0.274,-0.231 0.849,0.849 0 0 0 -0.392,-0.086 c -0.157,0 -0.29,0.03 -0.4,0.091 a 0.783,0.783 0 0 0 -0.268,0.239 0.992,0.992 0 0 0 -0.1510002,0.335 1.577,1.577 0 0 0 0.003,0.775 0.966,0.966 0 0 0 0.1560002,0.335 0.785,0.785 0 0 0 0.276,0.233 c 0.113,0.059 0.25,0.088 0.411,0.088 0.161,0 0.295,-0.03 0.402,-0.091 a 0.744,0.744 0 0 0 0.26,-0.241 c 0.066,-0.1 0.113,-0.214 0.142,-0.343 0.029,-0.129 0.044,-0.261 0.044,-0.397 a 1.343,1.343 0 0 0 -0.05,-0.377 z m 2.951,1.611 c -0.213,0.157 -0.48,0.236 -0.803,0.236 a 1.5,1.5 0 0 1 -0.591,-0.107 1.17,1.17 0 0 1 -0.421,-0.301 1.272,1.272 0 0 1 -0.256,-0.461 2.157,2.157 0 0 1 -0.096,-0.585 c 0,-0.211 0.033,-0.404 0.099,-0.579 0.066,-0.175 0.159,-0.327 0.278,-0.456 a 1.25,1.25 0 0 1 0.424,-0.3 c 0.163,-0.072 0.342,-0.107 0.537,-0.107 0.253,0 0.463,0.051 0.63,0.153 0.167,0.102 0.301,0.232 0.402,0.39 0.101,0.158 0.171,0.33 0.209,0.516 0.039,0.186 0.054,0.364 0.047,0.532 h -2.127 c -0.004,0.121 0.011,0.237 0.044,0.345 a 0.779,0.779 0 0 0 0.159,0.289 0.778,0.778 0 0 0 0.28,0.201 c 0.113,0.05 0.247,0.075 0.401,0.075 a 0.826,0.826 0 0 0 0.486,-0.134 0.654,0.654 0 0 0 0.25,-0.408 h 0.462 c -0.064,0.31 -0.201,0.544 -0.414,0.701 z m -0.114,-1.78 a 0.792,0.792 0 0 0 -0.743,-0.477 0.827,0.827 0 0 0 -0.326,0.062 0.737,0.737 0 0 0 -0.249,0.169 0.81,0.81 0 0 0 -0.164,0.249 0.926,0.926 0 0 0 -0.071,0.302 h 1.628 a 0.93,0.93 0 0 0 -0.075,-0.305 z m 1.327,-0.817 v 0.44 h 0.009 c 0.195,-0.337 0.504,-0.505 0.928,-0.505 0.188,0 0.344,0.025 0.469,0.075 0.125,0.05 0.226,0.12 0.304,0.21 0.077,0.09 0.132,0.196 0.163,0.32 0.031,0.124 0.047,0.261 0.047,0.411 v 1.827 h -0.471 v -1.879 a 0.546,0.546 0 0 0 -0.154,-0.408 0.582,0.582 0 0 0 -0.424,-0.15 0.978,0.978 0 0 0 -0.372,0.065 0.696,0.696 0 0 0 -0.262,0.183 0.785,0.785 0 0 0 -0.157,0.276 1.096,1.096 0 0 0 -0.052,0.346 v 1.568 h -0.471 v -2.777 h 0.443 z m 5.174,2.747 a 1.67,1.67 0 0 1 -0.644,0.131 c -0.342,0 -0.649,-0.058 -0.922,-0.174 a 1.976,1.976 0 0 1 -0.691,-0.48 2.112,2.112 0 0 1 -0.431,-0.719 c -0.1,-0.275 -0.15,-0.572 -0.15,-0.89 0,-0.326 0.05,-0.629 0.15,-0.909 0.1,-0.279 0.243,-0.523 0.43,-0.731 0.187,-0.208 0.417,-0.371 0.69,-0.49 a 2.3,2.3 0 0 1 0.922,-0.1769996 c 0.229,0 0.451,0.034 0.665,0.101 0.215,0.068 0.408,0.1669996 0.581,0.2969996 a 1.6,1.6 0 0 1 0.634,1.144 h -0.937 c -0.058,-0.244 -0.171,-0.427 -0.338,-0.55 a 1,1 0 0 0 -0.606,-0.183 c -0.221,0 -0.408,0.042 -0.563,0.125 -0.155,0.083 -0.279,0.196 -0.375,0.337 a 1.444,1.444 0 0 0 -0.209,0.48 2.327,2.327 0 0 0 0,1.092 c 0.044,0.173 0.114,0.329 0.21,0.468 0.096,0.139 0.221,0.25 0.375,0.333 0.154,0.084 0.342,0.125 0.563,0.125 0.325,0 0.577,-0.08 0.754,-0.241 0.177,-0.16 0.281,-0.393 0.31,-0.698 h -0.987 v -0.717 h 1.872 v 2.358 h -0.623 l -0.1,-0.495 a 1.44,1.44 0 0 1 -0.58,0.463 z m 2.895,-4.3289996 v 3.5499996 h 2.175 v 0.809 h -3.154 V 9.9451464 Z M 5.7872028,14.125146 c 0.053,0.03 0.107,0.059 0.164,0.085 0.267,0.124 0.578,0.186 0.933,0.186 0.355,0 0.666,-0.062 0.933,-0.186 0.267,-0.124 0.491,-0.292 0.67,-0.503 0.179,-0.211 0.314,-0.454 0.404,-0.728 0.09,-0.274 0.135,-0.56 0.135,-0.856 0,-0.297 -0.045,-0.582 -0.135,-0.856 a 2.135,2.135 0 0 0 -0.404,-0.728 1.966,1.966 0 0 0 -0.67,-0.506 2.17,2.17 0 0 0 -0.933,-0.1889996 c -0.355,0 -0.666,0.063 -0.933,0.1889996 l -0.03,0.015 c 1.425,-1.1989997 4.034,-2.0009997 7.0170002,-2.0009997 2.512,0 4.765,0.516 6.263,1.412 -1.635,-1.501 -4.566,-2.555 -7.918,-2.556 -5.1350002,-0.001 -9.2970002,2.345 -9.2970002,5.2409997 0,2.895 4.161,5.243 9.2940002,5.244 3.338,0.001 6.262,-1.051 7.901,-2.541 -1.498,0.89 -3.741,1.397 -6.244,1.397 -3.0780002,-0.001 -5.7590002,-0.856 -7.1500002,-2.119 z m 0.395,-3.638 c 0.196,-0.104 0.43,-0.156 0.702,-0.156 0.272,0 0.506,0.052 0.702,0.156 0.196,0.104 0.357,0.241 0.483,0.412 0.125,0.171 0.217,0.363 0.276,0.577 a 2.43,2.43 0 0 1 0,1.3 c -0.059,0.214 -0.15,0.406 -0.276,0.576 a 1.393,1.393 0 0 1 -0.483,0.412 c -0.197,0.104 -0.43,0.155 -0.702,0.155 a 1.49,1.49 0 0 1 -0.702,-0.155 1.402,1.402 0 0 1 -0.483,-0.412 1.765,1.765 0 0 1 -0.276,-0.576 2.43,2.43 0 0 1 0,-1.3 1.74,1.74 0 0 1 0.276,-0.577 c 0.125,-0.171 0.286,-0.308 0.483,-0.412 z"
     id="path2469" />
</svg>
