<?xml version="1.0" encoding="UTF-8" standalone="no"?>
<svg
   xmlns:dc="http://purl.org/dc/elements/1.1/"
   xmlns:cc="http://creativecommons.org/ns#"
   xmlns:rdf="http://www.w3.org/1999/02/22-rdf-syntax-ns#"
   xmlns:svg="http://www.w3.org/2000/svg"
   xmlns="http://www.w3.org/2000/svg"
   xmlns:sodipodi="http://sodipodi.sourceforge.net/DTD/sodipodi-0.dtd"
   xmlns:inkscape="http://www.inkscape.org/namespaces/inkscape"
   width="7.5507822mm"
   height="4.7721238mm"
   viewBox="0 0 7.5507822 4.7721238"
   version="1.1"
   id="svg8"
   inkscape:version="1.0.1 (3bc2e813f5, 2020-09-07)"
   sodipodi:docname="supported_platforms.svg">
  <defs
     id="defs2">
    <inkscape:path-effect
       effect="fillet_chamfer"
       id="path-effect1576"
       is_visible="true"
       lpeversion="1"
       satellites_param="F,0,0,1,0,13.49375,0,1 @ F,0,0,1,0,13.49375,0,1 @ F,0,0,1,0,13.49375,0,1 @ F,0,0,1,0,13.49375,0,1"
       unit="px"
       method="auto"
       mode="F"
       radius="51"
       chamfer_steps="1"
       flexible="false"
       use_knot_distance="true"
       apply_no_radius="true"
       apply_with_radius="true"
       only_selected="false"
       hide_knots="false" />
  </defs>
  <sodipodi:namedview
     id="base"
     pagecolor="#1c1c1c"
     bordercolor="#666666"
     borderopacity="1.0"
     inkscape:pageopacity="0"
     inkscape:pageshadow="2"
     inkscape:zoom="4"
     inkscape:cx="55.607164"
     inkscape:cy="0.8850086"
     inkscape:document-units="mm"
     inkscape:current-layer="layer1"
     inkscape:document-rotation="0"
     showgrid="false"
     inkscape:window-width="2560"
     inkscape:window-height="1361"
     inkscape:window-x="-9"
     inkscape:window-y="-9"
     inkscape:window-maximized="1"
     fit-margin-top="0"
     fit-margin-left="0"
     fit-margin-right="0"
     fit-margin-bottom="0" />
  <metadata
     id="metadata5">
    <rdf:RDF>
      <cc:Work
         rdf:about="">
        <dc:format>image/svg+xml</dc:format>
        <dc:type
           rdf:resource="http://purl.org/dc/dcmitype/StillImage" />
        <dc:title></dc:title>
      </cc:Work>
    </rdf:RDF>
  </metadata>
  <g
     inkscape:label="Ebene 1"
     inkscape:groupmode="layer"
     id="layer1"
     transform="translate(-90.599609,-251.51499)">
    <path
       id="path1854"
       style="fill:#ffffff;fill-opacity:1;stroke:none;stroke-width:0.265;stroke-miterlimit:4;stroke-dasharray:none;stroke-opacity:1;paint-order:markers stroke fill"
       d="m 92.330078,251.53125 c -0.655347,0.10655 -0.664666,0.70452 -0.255091,1.3071 0.0779,0.23064 -0.222054,0.39481 -0.432409,0.6304 -0.687694,0.77329 -0.968578,1.80643 -1.042969,2.81836 h 7.550782 c -0.06557,-1.23756 -0.542795,-2.51736 -1.550782,-3.28906 0.445386,-0.70835 0.585219,-1.20343 -0.07227,-1.44532 -0.582479,-0.19801 -0.90431,0.42708 -1.117188,0.85157 -0.671811,-0.17643 -1.391486,-0.17457 -2.0625,0.004 -0.241504,-0.38707 -0.441765,-0.98664 -1.017578,-0.87695 z"
       sodipodi:nodetypes="ccccccccccc" />
    <path
       d="m 97.554666,255.75732 h -6.35 a 3.5983333,3.5983333 0 0 1 0.58473,-1.60602 2.9633333,2.9633333 0 0 1 0.96837,-0.93398 l 0.10848,-0.0608 -0.53446,-0.90223 a 0.1349375,0.1349375 0 0 1 0.045,-0.18521 0.13229167,0.13229167 0 0 1 0.18257,0.0476 l 0.55033,0.92604 a 3.3390417,3.3390417 0 0 1 1.28058,-0.23812 3.2279167,3.2279167 0 0 1 1.25677,0.23812 l 0.54769,-0.92604 a 0.13229167,0.13229167 0 0 1 0.18521,-0.045 0.1349375,0.1349375 0 0 1 0.0423,0.18521 l -0.53446,0.90488 0.1323,0.0741 a 3.0109583,3.0109583 0 0 1 0.96043,0.95779 3.8311667,3.8311667 0 0 1 0.57415,1.56369 z m -1.98438,-1.18533 a 0.26458333,0.26458333 0 0 0 0.26459,0.26458 0.26458333,0.26458333 0 0 0 0.26458,-0.26458 0.26458333,0.26458333 0 0 0 -0.26458,-0.26459 0.26458333,0.26458333 0 0 0 -0.26459,0.26459 z m -2.91041,0 a 0.26458333,0.26458333 0 0 0 0.26458,0.26458 0.26458333,0.26458333 0 0 0 0.26458,-0.26458 0.26458333,0.26458333 0 0 0 -0.26458,-0.26459 0.26458333,0.26458333 0 0 0 -0.26458,0.26459 z"
       id="path1730"
       style="stroke:none;stroke-width:0.265;stroke-miterlimit:4;stroke-dasharray:none;stroke-opacity:1;paint-order:markers stroke fill" />
  </g>
</svg>
