<?xml version="1.0" encoding="UTF-8" standalone="no"?>
<svg
   xmlns:dc="http://purl.org/dc/elements/1.1/"
   xmlns:cc="http://creativecommons.org/ns#"
   xmlns:rdf="http://www.w3.org/1999/02/22-rdf-syntax-ns#"
   xmlns:svg="http://www.w3.org/2000/svg"
   xmlns="http://www.w3.org/2000/svg"
   xmlns:sodipodi="http://sodipodi.sourceforge.net/DTD/sodipodi-0.dtd"
   xmlns:inkscape="http://www.inkscape.org/namespaces/inkscape"
   width="6.2932339mm"
   height="7.4241176mm"
   viewBox="0 0 6.2932339 7.4241175"
   version="1.1"
   id="svg8"
   inkscape:version="1.0.1 (3bc2e813f5, 2020-09-07)"
   sodipodi:docname="supported_platforms.svg">
  <defs
     id="defs2">
    <inkscape:path-effect
       effect="fillet_chamfer"
       id="path-effect1576"
       is_visible="true"
       lpeversion="1"
       satellites_param="F,0,0,1,0,13.49375,0,1 @ F,0,0,1,0,13.49375,0,1 @ F,0,0,1,0,13.49375,0,1 @ F,0,0,1,0,13.49375,0,1"
       unit="px"
       method="auto"
       mode="F"
       radius="51"
       chamfer_steps="1"
       flexible="false"
       use_knot_distance="true"
       apply_no_radius="true"
       apply_with_radius="true"
       only_selected="false"
       hide_knots="false" />
  </defs>
  <sodipodi:namedview
     id="base"
     pagecolor="#1c1c1c"
     bordercolor="#666666"
     borderopacity="1.0"
     inkscape:pageopacity="0"
     inkscape:pageshadow="2"
     inkscape:zoom="4"
     inkscape:cx="74.016228"
     inkscape:cy="-16.213203"
     inkscape:document-units="mm"
     inkscape:current-layer="layer1"
     inkscape:document-rotation="0"
     showgrid="false"
     inkscape:window-width="2560"
     inkscape:window-height="1361"
     inkscape:window-x="-9"
     inkscape:window-y="-9"
     inkscape:window-maximized="1"
     fit-margin-top="0"
     fit-margin-left="0"
     fit-margin-right="0"
     fit-margin-bottom="0" />
  <metadata
     id="metadata5">
    <rdf:RDF>
      <cc:Work
         rdf:about="">
        <dc:format>image/svg+xml</dc:format>
        <dc:type
           rdf:resource="http://purl.org/dc/dcmitype/StillImage" />
        <dc:title></dc:title>
      </cc:Work>
    </rdf:RDF>
  </metadata>
  <g
     inkscape:label="Ebene 1"
     inkscape:groupmode="layer"
     id="layer1"
     transform="translate(-80.982248,-249.48728)">
    <path
       id="path1852"
       style="fill:#ffffff;fill-opacity:1;stroke:none;stroke-width:0.265;stroke-miterlimit:4;stroke-dasharray:none;stroke-opacity:1;paint-order:markers stroke fill"
       d="m 84.525391,249.51758 c -0.922248,-0.19246 -1.851341,0.55768 -1.771485,1.51562 0.05985,0.54041 0.0244,1.09926 -0.40831,1.48859 -0.361087,0.49106 -0.630256,1.07668 -0.669815,1.68329 -0.562785,0.1404 -0.704228,0.73419 -0.642578,1.22851 -0.258905,0.73631 0.520846,1.20404 1.166016,1.17579 0.532726,0.29526 1.232162,0.32708 1.699219,-0.084 0.584632,-0.26482 0.862613,0.43894 1.421874,0.38281 0.703924,-0.0106 1.105139,-0.69038 1.708985,-0.95117 0.598943,-0.53812 -0.06653,-1.18738 -0.199219,-1.75195 0.116187,-0.96225 -0.618189,-1.67771 -1.074219,-2.42578 -0.04238,-1.76837 -0.386025,-2.08845 -1.230472,-2.2617 z"
       sodipodi:nodetypes="scccccccccccs" />
    <path
       d="m 84.270751,250.03102 c -0.04101,0 -0.08334,0.002 -0.126736,0.006 -1.118394,0.0881 -0.821796,1.27185 -0.838729,1.66634 -0.02037,0.28919 -0.07937,0.517 -0.278077,0.79931 -0.234156,0.27808 -0.562769,0.7276 -0.718608,1.19618 -0.07355,0.22013 -0.10848,0.44556 -0.07594,0.65855 -0.01032,0.009 -0.02011,0.018 -0.02937,0.0357 -0.06879,0.0709 -0.118798,0.15901 -0.175154,0.22198 -0.05265,0.0527 -0.128323,0.0707 -0.210873,0.10584 -0.08281,0.036 -0.174096,0.0712 -0.2286,0.18018 -0.02381,0.0497 -0.03598,0.10398 -0.03493,0.15901 0,0.0526 0.0071,0.1061 0.01455,0.14182 0.01535,0.10557 0.03069,0.19288 0.01032,0.25665 -0.06562,0.17991 -0.07382,0.30321 -0.02778,0.3929 0.04604,0.0884 0.141552,0.12409 0.248444,0.15902 0.214577,0.0529 0.505354,0.0357 0.734218,0.15848 0.245005,0.12356 0.493713,0.17754 0.69215,0.12436 0.139171,-0.0304 0.256646,-0.12251 0.319617,-0.25004 0.15531,-7.9e-4 0.325438,-0.0712 0.597958,-0.0884 0.184944,-0.0153 0.416455,0.0707 0.682096,0.0527 0.0066,0.0357 0.01667,0.0526 0.03016,0.0884 l 7.94e-4,7.9e-4 c 0.103453,0.20585 0.294482,0.29951 0.498476,0.28337 0.203993,-0.0159 0.421216,-0.14182 0.597164,-0.34555 0.166952,-0.2024 0.445294,-0.28681 0.629179,-0.39767 0.09207,-0.0526 0.166423,-0.12409 0.171715,-0.22569 0.0061,-0.10583 -0.05265,-0.21484 -0.188913,-0.36433 v -0.0257 l -7.93e-4,-8e-4 c -0.04498,-0.0529 -0.06615,-0.14155 -0.08943,-0.245 -0.02249,-0.1061 -0.04815,-0.20796 -0.130176,-0.27675 h -7.93e-4 c -0.01561,-0.0143 -0.03254,-0.0177 -0.04974,-0.0357 -0.01482,-0.0101 -0.03201,-0.0164 -0.05027,-0.0169 0.114036,-0.33813 0.06985,-0.67468 -0.04577,-0.97737 -0.141023,-0.37306 -0.387614,-0.69797 -0.575468,-0.92154 -0.210609,-0.26591 -0.416984,-0.51779 -0.413015,-0.89138 0.0071,-0.56938 0.06271,-1.62269 -0.937683,-1.62428 z m 0.139964,0.90091 h 0.0034 c 0.05636,0 0.104775,0.0164 0.154517,0.0524 0.05054,0.0357 0.08731,0.0878 0.116152,0.14102 0.02778,0.0685 0.0418,0.12144 0.04392,0.19156 0,-0.005 0.0016,-0.0106 0.0016,-0.0156 v 0.0275 c -5.29e-4,-0.002 -0.0011,-0.004 -0.0011,-0.006 l -0.0011,-0.006 c -5.29e-4,0.0643 -0.01402,0.12779 -0.03969,0.18679 -0.01243,0.0331 -0.03148,0.0635 -0.05636,0.0886 -0.0077,-0.004 -0.01508,-0.008 -0.02328,-0.0111 -0.02778,-0.0119 -0.05265,-0.0169 -0.07541,-0.0352 -0.01878,-0.007 -0.03836,-0.0135 -0.05794,-0.0175 0.01296,-0.0156 0.03836,-0.0352 0.04815,-0.0524 0.01402,-0.0339 0.0217,-0.0698 0.02328,-0.10637 v -0.005 c 5.29e-4,-0.0357 -0.0048,-0.0717 -0.01614,-0.10583 -0.01191,-0.0357 -0.02672,-0.0532 -0.04842,-0.0884 -0.02223,-0.0175 -0.04418,-0.0349 -0.07064,-0.0349 h -0.0042 c -0.02461,0 -0.04657,0.008 -0.06932,0.0349 -0.02513,0.0249 -0.04392,0.0548 -0.05424,0.0884 -0.01402,0.0336 -0.02223,0.0699 -0.02381,0.10583 v 0.005 c 5.29e-4,0.0236 0.0021,0.0474 0.0053,0.0707 -0.05106,-0.0177 -0.115887,-0.0357 -0.160602,-0.0534 -0.0027,-0.0172 -0.0042,-0.0349 -0.0048,-0.0526 v -0.005 c -0.0021,-0.0699 0.01138,-0.13917 0.03969,-0.20347 0.0217,-0.0579 0.06138,-0.10742 0.113771,-0.14102 0.04524,-0.0341 0.100277,-0.0526 0.157162,-0.0526 z m -0.783696,0.0156 h 0.0095 c 0.03757,0 0.07144,0.0127 0.105569,0.0357 0.03863,0.0341 0.06985,0.0762 0.09102,0.12303 0.02381,0.0526 0.03731,0.1061 0.04048,0.17648 v 0.001 c 0.0019,0.0354 0.0016,0.0532 -5.29e-4,0.0704 v 0.0212 c -0.0079,0.002 -0.01482,0.005 -0.02196,0.006 -0.04022,0.0146 -0.0725,0.0357 -0.103981,0.0529 0.0032,-0.0236 0.0034,-0.0474 7.94e-4,-0.0707 v -0.004 c -0.0032,-0.0352 -0.01032,-0.0526 -0.0217,-0.0881 -0.0082,-0.027 -0.02328,-0.0511 -0.04392,-0.0707 -0.01296,-0.0119 -0.03043,-0.018 -0.04842,-0.0169 h -0.0056 c -0.01878,0.002 -0.0344,0.0109 -0.04921,0.0349 -0.01693,0.0204 -0.02778,0.0452 -0.03175,0.0714 -0.0071,0.0286 -0.0093,0.058 -0.0061,0.0876 v 0.004 c 0.0032,0.0357 0.0098,0.0532 0.02143,0.0884 0.01191,0.0355 0.02566,0.0529 0.04366,0.0709 0.0029,0.002 0.0056,0.005 0.009,0.006 -0.01852,0.0151 -0.03096,0.0185 -0.04657,0.036 -0.0098,0.007 -0.02117,0.0159 -0.03466,0.018 -0.02752,-0.0331 -0.05186,-0.0688 -0.07276,-0.10636 -0.0254,-0.0556 -0.03863,-0.11589 -0.04101,-0.17648 -0.0045,-0.0598 0.0029,-0.11959 0.02117,-0.17674 0.01455,-0.0521 0.04022,-0.10027 0.07488,-0.14155 0.03387,-0.0352 0.06879,-0.0529 0.110595,-0.0529 z m 0.362744,0.45138 c 0.08758,0 0.193675,0.0172 0.321469,0.10557 0.07752,0.0529 0.138377,0.0712 0.278606,0.12382 h 7.94e-4 c 0.06747,0.036 0.107156,0.0704 0.126471,0.10557 v -0.0347 c 0.01932,0.0389 0.02064,0.0841 0.0042,0.12435 -0.03254,0.0823 -0.136525,0.1704 -0.281517,0.22305 v 5.3e-4 c -0.0709,0.0357 -0.132553,0.0881 -0.205049,0.12303 -0.07302,0.0357 -0.155575,0.0773 -0.267758,0.0706 -0.04022,0.002 -0.0807,-0.004 -0.118533,-0.0177 -0.0291,-0.0159 -0.05768,-0.0333 -0.0852,-0.0524 -0.05159,-0.0357 -0.09604,-0.0879 -0.161925,-0.12303 v -10e-4 h -0.0013 c -0.105836,-0.0651 -0.162986,-0.13547 -0.181507,-0.18813 -0.01826,-0.0709 -0.0013,-0.12409 0.05107,-0.15875 0.05927,-0.0357 0.100541,-0.0717 0.127793,-0.0889 0.02752,-0.0196 0.03784,-0.027 0.04657,-0.0347 h 5.3e-4 v -7.9e-4 c 0.04471,-0.0534 0.115358,-0.12409 0.221985,-0.15901 0.03678,-0.01 0.07779,-0.0172 0.123295,-0.0172 z m 0.740569,0.567 c 0.09498,0.37491 0.316706,0.91943 0.459317,1.18348 0.07567,0.14129 0.226218,0.43894 0.29157,0.8001 0.04127,-0.001 0.08705,0.005 0.135732,0.0169 0.17092,-0.44211 -0.144463,-0.91731 -0.288132,-1.04933 -0.05847,-0.0532 -0.06138,-0.0886 -0.03254,-0.0886 0.155839,0.14129 0.361156,0.41593 0.435504,0.72946 0.03413,0.14155 0.04207,0.2921 0.0056,0.44185 0.01773,0.007 0.03572,0.0161 0.05424,0.0177 0.27305,0.14129 0.373856,0.24818 0.325437,0.40666 v -0.0114 c -0.01614,-8e-4 -0.03175,0 -0.04789,0 h -0.004 c 0.03995,-0.12356 -0.04816,-0.21829 -0.281783,-0.32385 -0.242094,-0.10584 -0.435505,-0.0889 -0.468578,0.12303 -0.0019,0.0114 -0.0032,0.0175 -0.0045,0.0357 -0.01799,0.006 -0.03678,0.014 -0.0553,0.0169 -0.11377,0.0709 -0.175154,0.17701 -0.209814,0.31406 -0.0344,0.14102 -0.04498,0.30586 -0.05424,0.49451 v 7.9e-4 c -0.0055,0.0884 -0.04524,0.22172 -0.0844,0.35745 -0.396875,0.28364 -0.947209,0.40693 -1.415256,0.0884 -0.02937,-0.0511 -0.06509,-0.099 -0.106363,-0.14102 -0.01958,-0.0331 -0.04445,-0.0627 -0.07276,-0.0884 0.04815,0 0.08943,-0.008 0.123031,-0.0177 0.03836,-0.0177 0.068,-0.0497 0.08308,-0.0884 0.02858,-0.0706 0,-0.18441 -0.09128,-0.30771 -0.09128,-0.12356 -0.246328,-0.26326 -0.473076,-0.40243 -0.166687,-0.10557 -0.260879,-0.23019 -0.30427,-0.36936 -0.04366,-0.14129 -0.03784,-0.28707 -0.004,-0.43524 0.06482,-0.2831 0.230981,-0.55827 0.337079,-0.73104 0.02831,-0.0172 0.0098,0.0357 -0.10795,0.2577 -0.104775,0.1987 -0.30189,0.66067 -0.03228,1.01971 0.01005,-0.26168 0.06826,-0.51991 0.171185,-0.76095 0.149225,-0.33813 0.461169,-0.9271 0.485775,-1.39382 0.0127,0.01 0.05742,0.0357 0.07646,0.0534 0.05768,0.0352 0.100542,0.0881 0.156104,0.12303 0.05583,0.0532 0.126207,0.0886 0.231775,0.0886 0.01032,8e-4 0.01984,0.002 0.02937,0.002 0.108744,0 0.192882,-0.0354 0.263525,-0.0709 0.07673,-0.0354 0.137848,-0.0884 0.195792,-0.10583 h 0.0013 c 0.123563,-0.0357 0.221194,-0.10636 0.276492,-0.18521 z m 0.578379,2.37014 c 0.0098,0.15901 0.09075,0.3294 0.233363,0.36433 0.155575,0.0355 0.379412,-0.0881 0.473868,-0.20241 l 0.05583,-0.002 c 0.08334,-0.002 0.152665,0.003 0.224102,0.0707 l 7.94e-4,7.9e-4 c 0.05503,0.0526 0.0807,0.14049 0.103452,0.23177 0.02249,0.1061 0.04075,0.20638 0.108215,0.28205 0.128587,0.13943 0.170656,0.23971 0.168275,0.30162 l 7.94e-4,-0.002 v 0.005 l -7.94e-4,-0.003 c -0.004,0.0693 -0.04895,0.10478 -0.131763,0.15743 -0.166687,0.1061 -0.461962,0.18838 -0.650081,0.4154 -0.163512,0.19499 -0.362744,0.30136 -0.538692,0.31512 -0.175683,0.014 -0.327289,-0.0529 -0.416454,-0.2376 l -0.0013,-7.9e-4 c -0.05557,-0.1061 -0.03175,-0.2712 0.01481,-0.44715 0.04657,-0.17674 0.113242,-0.35586 0.122502,-0.50218 0.0098,-0.18891 0.02011,-0.35322 0.05159,-0.47995 0.03175,-0.12303 0.08149,-0.21088 0.169598,-0.26035 l 0.01191,-0.006 z m -2.861469,0.013 h 0.0027 c 0.01402,0 0.02778,0.001 0.04154,0.004 0.09948,0.0146 0.186796,0.0881 0.270669,0.19897 l 0.240771,0.44026 7.94e-4,8e-4 c 0.06429,0.14102 0.199496,0.28152 0.314589,0.43339 0.114829,0.15822 0.203729,0.29924 0.192882,0.41539 v 0.002 c -0.01509,0.19685 -0.12674,0.30375 -0.297661,0.34237 -0.170657,0.0357 -0.402167,5.3e-4 -0.633677,-0.12276 -0.256117,-0.14182 -0.560388,-0.12409 -0.755915,-0.15928 -0.09763,-0.0175 -0.16166,-0.0532 -0.191294,-0.1061 -0.02937,-0.0526 -0.0299,-0.15901 0.03254,-0.32544 v -7.9e-4 l 5.29e-4,-7.9e-4 c 0.03096,-0.0884 0.0079,-0.19924 -0.0071,-0.29607 -0.01455,-0.1061 -0.02196,-0.18759 0.01138,-0.24871 0.04233,-0.0884 0.104775,-0.10557 0.182297,-0.14102 0.07805,-0.0357 0.169598,-0.0534 0.242359,-0.12409 h 5.29e-4 v -8e-4 c 0.06773,-0.0709 0.11774,-0.15901 0.176742,-0.22172 0.05027,-0.0532 0.100541,-0.0889 0.175418,-0.0889 z m 1.894152,-2.40083 c -0.115093,0.0532 -0.250031,0.14155 -0.3937,0.14155 -0.143404,0 -0.256645,-0.0706 -0.338402,-0.12329 -0.04101,-0.0355 -0.07408,-0.0709 -0.09895,-0.0886 -0.04339,-0.0354 -0.0381,-0.0884 -0.01958,-0.0884 0.02884,0.004 0.03413,0.0357 0.05265,0.0532 0.0254,0.0175 0.05689,0.0527 0.09552,0.0881 0.07699,0.0529 0.179917,0.12356 0.308505,0.12356 0.128322,0 0.278606,-0.0706 0.369887,-0.1233 0.05159,-0.0357 0.11774,-0.0884 0.17145,-0.12356 0.04127,-0.0362 0.03942,-0.0709 0.07382,-0.0709 0.03413,0.004 0.009,0.0354 -0.03889,0.0881 -0.04789,0.0357 -0.121973,0.0886 -0.182562,0.12383 v -2.7e-4 z m -0.286279,-0.4191 v -0.006 c -0.0016,-0.005 0.0034,-0.0111 0.0077,-0.0132 0.01958,-0.0114 0.04763,-0.007 0.06879,0.001 0.01667,0 0.04233,0.0177 0.03969,0.0357 -0.0016,0.013 -0.02249,0.0175 -0.03572,0.0175 -0.01455,0 -0.02434,-0.0114 -0.03731,-0.018 -0.01376,-0.005 -0.03863,-0.002 -0.04313,-0.0172 z m -0.145785,0 c -0.0053,0.0153 -0.0299,0.013 -0.04392,0.0175 -0.01244,0.007 -0.02275,0.018 -0.03678,0.018 -0.01349,0 -0.03466,-0.005 -0.03625,-0.018 -0.0024,-0.0175 0.02328,-0.0352 0.03969,-0.0352 0.02143,-0.008 0.04868,-0.0124 0.06853,-10e-4 0.005,0.002 0.0095,0.008 0.0079,0.0132 v 0.006 h 7.94e-4 z"
       id="path1693"
       style="stroke:none;stroke-width:0.265;stroke-miterlimit:4;stroke-dasharray:none;stroke-opacity:1;paint-order:markers stroke fill" />
  </g>
</svg>
