<?xml version="1.0" encoding="UTF-8" standalone="no"?>
<svg
   xmlns:dc="http://purl.org/dc/elements/1.1/"
   xmlns:cc="http://creativecommons.org/ns#"
   xmlns:rdf="http://www.w3.org/1999/02/22-rdf-syntax-ns#"
   xmlns:svg="http://www.w3.org/2000/svg"
   xmlns="http://www.w3.org/2000/svg"
   xmlns:sodipodi="http://sodipodi.sourceforge.net/DTD/sodipodi-0.dtd"
   xmlns:inkscape="http://www.inkscape.org/namespaces/inkscape"
   role="img"
   viewBox="0 0 23.070265 27.942633"
   version="1.1"
   id="svg1883"
   sodipodi:docname="raspberrypi.svg"
   width="23.070265"
   height="27.942633"
   inkscape:version="1.0.1 (3bc2e813f5, 2020-09-07)">
  <metadata
     id="metadata1889">
    <rdf:RDF>
      <cc:Work
         rdf:about="">
        <dc:format>image/svg+xml</dc:format>
        <dc:type
           rdf:resource="http://purl.org/dc/dcmitype/StillImage" />
        <dc:title>Raspberry Pi icon</dc:title>
      </cc:Work>
    </rdf:RDF>
  </metadata>
  <defs
     id="defs1887" />
  <sodipodi:namedview
     pagecolor="#323232"
     bordercolor="#666666"
     borderopacity="1"
     objecttolerance="10"
     gridtolerance="10"
     guidetolerance="10"
     inkscape:pageopacity="0"
     inkscape:pageshadow="2"
     inkscape:window-width="2560"
     inkscape:window-height="1361"
     id="namedview1885"
     showgrid="false"
     fit-margin-top="0"
     fit-margin-left="0"
     fit-margin-right="0"
     fit-margin-bottom="0"
     inkscape:zoom="12.062743"
     inkscape:cx="15.295401"
     inkscape:cy="18.334733"
     inkscape:window-x="-9"
     inkscape:window-y="-9"
     inkscape:window-maximized="1"
     inkscape:current-layer="svg1883" />
  <title
     id="title1879">Raspberry Pi icon</title>
  <path
     id="path2452"
     style="fill:#ffffff;fill-opacity:1"
     d="M 19.905436,0.8505797 C 19.03528,0.4766151 18.093992,0.3524459 17.184733,0.1064391 16.423181,0.0834261 15.641069,-0.0410421 14.90153,0.1747981 14.105147,0.2958619 13.264186,0.3830278 12.559733,0.8076105 12.071001,0.7167745 11.678496,1.6801307 11.251315,1.2197679 10.769433,0.8017389 10.258278,0.8117672 9.5981072,0.4306173 7.7967662,-0.0520506 6.8892727,-0.0768969 5.5265298,0.1025328 4.5944138,0.3551026 3.6514819,0.5479184 2.7609048,0.9208922 2.1415609,1.1098591 1.5975519,1.5398685 1.2726236,2.0986266 1.6847533,2.4152592 0.66492375,2.6015371 0.93049035,3.3714273 0.86347685,4.014276 0.82705775,4.6843605 1.0460611,5.3115172 1.2488752,6.1084135 1.4942903,6.9094225 1.9236238,7.6106558 2.0962476,8.1406144 2.5508149,8.4882295 2.8429361,8.9345641 2.2433989,9.7442782 1.9674246,10.755109 1.8234048,11.723627 c -2.07661785,1.87166 -2.47328072,5.328787 -0.703125,7.537109 0.48026,1.414712 0.7008432,2.987824 1.7673405,4.121866 0.8868373,1.11611 2.2472813,1.620779 3.3847108,2.412697 0.6998008,0.342076 1.3809364,0.670136 1.9758677,1.180305 2.2520522,1.520473 5.4799582,1.205049 7.4482522,-0.644555 1.217851,-0.490446 2.262764,-1.2929 3.394532,-1.935547 1.385437,-0.955715 2.22693,-2.509915 2.54299,-4.13384 0.179788,-0.651082 0.433722,-1.241758 0.824197,-1.793894 1.187111,-2.199762 0.58318,-5.108569 -1.255859,-6.761719 C 21.104681,10.725059 20.783378,9.7558878 20.20817,8.9501891 20.809939,8.2445861 21.343155,7.451634 21.633227,6.5590048 21.946148,5.739965 22.223135,4.8533045 22.170519,3.9639731 22.103419,3.1845545 22.084619,2.3179354 21.473408,1.7220473 20.551762,0.95082183 20.85723,1.261008 19.905436,0.8505797 Z"
     sodipodi:nodetypes="cccccccccccccccccccccccccccc" />
  <path
     d="m 15.643389,19.28233 c -0.857,0.989 -1.334,2.79 -0.709,3.371 0.596,0.449 2.201,0.391 3.385,-1.23 0.86,-1.08 0.569,-2.893 0.081,-3.372 -0.73,-0.555 -1.778,0.164 -2.757,1.243 z m -8.0569998,0.3 c -0.908,-1.04 -2.088,-1.658 -2.851,-1.199 -0.51,0.382 -0.605,1.685 0.123,2.967 1.078,1.524 2.596,1.679 3.221,1.307 0.659,-0.488 0.3,-2.137 -0.493,-3.075 z m 4.1049998,3.145 c -1.103,-0.026 -2.7979998,0.439 -2.7759998,1.032 -0.018,0.403 1.3309998,1.572 2.7049998,1.513 1.326,0.03 2.699,-1.139 2.682,-1.649 -0.004,-0.523 -1.498,-0.927 -2.607,-0.884 z m -0.075,-13.9440003 c -1.275,-0.032 -2.5019998,0.933 -2.5019998,1.4930003 -0.004,0.68 1.0079998,1.376 2.5099998,1.394 1.543,0.01 2.518,-0.559 2.532,-1.26 0.016,-0.7940003 -1.394,-1.6390003 -2.518,-1.6270003 z m -3.0709998,0.532 c -2.135,-0.345 -3.913,0.9000003 -3.842,3.1920003 0.07,0.884 4.63,-3.0410003 3.843,-3.1770003 z M 18.294389,12.56633 c 0.071,-2.277 -1.709,-3.5210003 -3.844,-3.1760003 -0.787,0.135 3.772,4.0610003 3.844,3.1760003 z m 0.364,0.824 c -1.239,-0.329 -0.42,5.049 0.588,4.615 1.109,-0.869 1.466,-3.446 -0.588,-4.6 z m -14.8979998,4.675 c 1.007,0.45 1.827,-4.929 0.589,-4.6 -2.053,1.153 -1.698,3.73 -0.589,4.615 z m 9.4149998,-5.948 c -1.146,0.75 -1.354,2.428 -0.461,3.746 0.891,1.318 2.543,1.813 3.691,1.078 1.146,-0.733 1.353,-2.412 0.462,-3.746 -0.892,-1.333 -2.545,-1.813 -3.692,-1.063 z m -3.096,0.135 c -1.1459998,-0.734 -2.7989998,-0.254 -3.6889998,1.064 -0.892,1.334 -0.686,3.012 0.461,3.761 1.147,0.749 2.799,0.269 3.6909998,-1.064 0.885,-1.318 0.675,-2.997 -0.465,-3.745 z m 4.369,7.162 c -0.009,-1.393 -1.252,-2.518 -2.781,-2.502 -1.527,0.016 -2.7609998,1.139 -2.7539998,2.532 v 0.029 c 0.01,1.394 1.2539998,2.517 2.7829998,2.502 1.527,0 2.756,-1.138 2.742,-2.517 v -0.029 z m 3.209,-15.1330003 c -2.307,1.184 -3.652,2.128 -4.389,2.938 0.377,1.498 2.344,1.558 3.063,1.512 -0.147,-0.06 -0.271,-0.149 -0.315,-0.269 0.18,-0.12 0.821,-0.016 1.268,-0.255 -0.171,-0.03 -0.252,-0.061 -0.329,-0.195 0.419,-0.135 0.875,-0.24 1.141,-0.465 -0.143,0 -0.278,0.03 -0.467,-0.09 0.377,-0.194 0.778,-0.359 1.095,-0.658 -0.196,0 -0.406,0 -0.466,-0.075 0.346,-0.21 0.635,-0.435 0.877,-0.704 -0.272,0.045 -0.39,0.016 -0.454,-0.03 0.261,-0.255 0.593,-0.479 0.749,-0.81 -0.203,0.076 -0.391,0.09 -0.522,0 0.091,-0.194 0.47,-0.314 0.69,-0.779 -0.215,0.03 -0.441,0.046 -0.486,0 0.098,-0.389 0.269,-0.613 0.435,-0.854 -0.457,0 -1.15,0 -1.117,-0.029 l 0.283,-0.285 c -0.448,-0.12 -0.904,0.015 -1.236,0.12 -0.149,-0.105 0,-0.255 0.185,-0.405 -0.39,0.061 -0.733,0.135 -1.034,0.256 -0.164,-0.15 0.105,-0.285 0.24,-0.436 -0.599,0.12 -0.839,0.27 -1.094,0.42 -0.18,-0.165 -0.015,-0.314 0.104,-0.449 -0.449,0.164 -0.674,0.374 -0.914,0.568 -0.09,-0.104 -0.209,-0.179 -0.06,-0.449 -0.314,0.18 -0.554,0.39 -0.734,0.629 -0.194,-0.134 -0.119,-0.299 -0.119,-0.449 -0.33,0.27 -0.54,0.54 -0.794,0.811 -0.061,-0.031 -0.105,-0.15 -0.135,-0.346 -0.779,0.75 -1.889,2.623 -0.285,3.356 1.349,-1.094 2.981,-1.903 4.779,-2.503 z m -12.2589998,0 c 1.798,0.6 3.419,1.408 4.7769998,2.518 1.596,-0.75 0.493,-2.623 -0.2819998,-3.356 -0.041,0.194 -0.085,0.329 -0.135,0.359 -0.255,-0.27 -0.462,-0.54 -0.788,-0.81 0,0.15 0.077,0.33 -0.117,0.45 -0.175,-0.239 -0.41,-0.45 -0.725,-0.63 0.149,0.256 0.025,0.33 -0.056,0.449 -0.24,-0.225 -0.465,-0.434 -0.899,-0.599 0.12,0.149 0.3,0.3 0.12,0.465 -0.239,-0.149 -0.494,-0.3 -1.078,-0.42 0.135,0.149 0.404,0.3 0.238,0.45 -0.315,-0.122 -0.66,-0.212 -1.035,-0.258 0.181,0.15 0.342,0.289 0.192,0.405 -0.345,-0.12 -0.806,-0.255 -1.255,-0.135 l 0.284,0.284 c 0.03,0.037 -0.659,0.03 -1.121,0.035 0.165,0.225 0.337,0.449 0.435,0.854 -0.045,0.045 -0.27,0.016 -0.483,0 0.225,0.449 0.599,0.57 0.688,0.765 -0.135,0.096 -0.314,0.075 -0.523,0 0.164,0.314 0.494,0.539 0.748,0.81 -0.074,0.044 -0.18,0.074 -0.464,0.037 0.239,0.26 0.524,0.494 0.869,0.704 -0.06,0.07 -0.271,0.069 -0.479,0.075 0.314,0.304 0.719,0.464 1.094,0.663 -0.195,0.136 -0.33,0.105 -0.465,0.105 0.255,0.225 0.72,0.329 1.139,0.464 -0.09,0.135 -0.164,0.165 -0.344,0.195 0.449,0.254 1.078,0.135 1.258,0.27 -0.045,0.119 -0.164,0.209 -0.314,0.27 0.719,0.045 2.697,-0.015 3.072,-1.514 -0.736,-0.807 -2.084,-1.752 -4.391,-2.921 z m 1.734,-2.234 c 0.236,-0.007 0.436,0.135 0.652,0.201 0.529,-0.17 0.65,0.063 0.91,0.159 0.577,-0.12 0.752,0.141 1.029,0.419 l 0.3219998,-0.009 c 0.869,0.507 1.305,1.536 1.457,2.065 0.152,-0.529 0.584,-1.559 1.457,-2.065 l 0.321,0.007 c 0.277,-0.283 0.453,-0.539 1.029,-0.418 0.261,-0.105 0.38,-0.33 0.911,-0.166 0.33,-0.104 0.62,-0.375 1.057,-0.045 0.368,-0.149 0.726,-0.195 1.045,0.09 0.495,-0.06 0.653,0.061 0.774,0.21 0.108,0 0.809,-0.104 1.132,0.36 0.81,-0.09 1.064,0.464 0.774,0.988 0.165,0.255 0.337,0.494 -0.05,0.975 0.15,0.269 0.062,0.553 -0.27,0.913 0.091,0.374 -0.074,0.63 -0.374,0.839 0.06,0.51 -0.48,0.81 -0.629,0.914 -0.061,0.3 -0.181,0.584 -0.795,0.734 -0.089,0.449 -0.464,0.523 -0.824,0.614 1.185,0.675 2.188,1.5580003 2.188,3.7310003 l 0.181,0.299 c 1.349,0.809 2.562,3.402 0.674,5.514 -0.119,0.659 -0.329,1.124 -0.511,1.648 -0.269,2.113 -2.082,3.101 -2.561,3.221 -0.689,0.525 -1.438,1.02 -2.442,1.363 -0.942,0.961 -1.976,1.336 -2.994,1.336 h -0.092 c -1.033,0 -2.0629998,-0.375 -3.0119998,-1.335 -1.007,-0.344 -1.754,-0.838 -2.447,-1.363 -0.479,-0.12 -2.283,-1.107 -2.562,-3.221 -0.187,-0.524 -0.394,-1.004 -0.518,-1.662 -1.894,-2.113 -0.681,-4.705 0.666,-5.515 l 0.172,-0.3 c 0,-2.172 1.005,-3.0570003 2.188,-3.7300003 -0.359,-0.09 -0.72,-0.165 -0.823,-0.615 -0.615,-0.15 -0.735,-0.434 -0.795,-0.734 -0.15,-0.105 -0.689,-0.404 -0.629,-0.928 -0.3,-0.211 -0.465,-0.465 -0.375,-0.854 -0.314,-0.346 -0.404,-0.645 -0.27,-0.915 -0.39,-0.479 -0.209,-0.733 -0.045,-0.974 -0.285,-0.525 -0.03,-1.094 0.779,-1.004 0.314,-0.465 1.02,-0.359 1.123,-0.359 0.121,-0.15 0.285,-0.285 0.779,-0.225 0.314,-0.285 0.675,-0.24 1.049,-0.102 0.151,-0.12 0.286,-0.164 0.406,-0.164 z"
     id="path1881" />
</svg>
