<?xml version="1.0" encoding="UTF-8" standalone="no"?>
<svg
   xmlns:dc="http://purl.org/dc/elements/1.1/"
   xmlns:cc="http://creativecommons.org/ns#"
   xmlns:rdf="http://www.w3.org/1999/02/22-rdf-syntax-ns#"
   xmlns:svg="http://www.w3.org/2000/svg"
   xmlns="http://www.w3.org/2000/svg"
   xmlns:sodipodi="http://sodipodi.sourceforge.net/DTD/sodipodi-0.dtd"
   xmlns:inkscape="http://www.inkscape.org/namespaces/inkscape"
   width="7.4081998mm"
   height="7.4081998mm"
   viewBox="0 0 7.4081998 7.4081997"
   version="1.1"
   id="svg8"
   inkscape:version="1.0.1 (3bc2e813f5, 2020-09-07)"
   sodipodi:docname="supported_platforms.svg">
  <defs
     id="defs2">
    <inkscape:path-effect
       effect="fillet_chamfer"
       id="path-effect1576"
       is_visible="true"
       lpeversion="1"
       satellites_param="F,0,0,1,0,13.49375,0,1 @ F,0,0,1,0,13.49375,0,1 @ F,0,0,1,0,13.49375,0,1 @ F,0,0,1,0,13.49375,0,1"
       unit="px"
       method="auto"
       mode="F"
       radius="51"
       chamfer_steps="1"
       flexible="false"
       use_knot_distance="true"
       apply_no_radius="true"
       apply_with_radius="true"
       only_selected="false"
       hide_knots="false" />
  </defs>
  <sodipodi:namedview
     id="base"
     pagecolor="#1c1c1c"
     bordercolor="#666666"
     borderopacity="1.0"
     inkscape:pageopacity="0"
     inkscape:pageshadow="2"
     inkscape:zoom="4"
     inkscape:cx="-14.896719"
     inkscape:cy="14.755826"
     inkscape:document-units="mm"
     inkscape:current-layer="layer1"
     inkscape:document-rotation="0"
     showgrid="false"
     inkscape:window-width="2560"
     inkscape:window-height="1361"
     inkscape:window-x="-9"
     inkscape:window-y="-9"
     inkscape:window-maximized="1"
     fit-margin-top="0"
     fit-margin-left="0"
     fit-margin-right="0"
     fit-margin-bottom="0" />
  <metadata
     id="metadata5">
    <rdf:RDF>
      <cc:Work
         rdf:about="">
        <dc:format>image/svg+xml</dc:format>
        <dc:type
           rdf:resource="http://purl.org/dc/dcmitype/StillImage" />
        <dc:title></dc:title>
      </cc:Work>
    </rdf:RDF>
  </metadata>
  <g
     inkscape:label="Ebene 1"
     inkscape:groupmode="layer"
     id="layer1"
     transform="translate(-114.06836,-249.61328)">
    <path
       id="path1858"
       style="fill:#ffffff;fill-opacity:1;stroke:none;stroke-width:0.265;stroke-miterlimit:4;stroke-dasharray:none;stroke-opacity:1;paint-order:markers stroke fill"
       d="m 114.06836,250.14258 v 6.8789 h 7.4082 v -7.4082 h -3.47474 c 0,0.44966 -0.0359,0.75509 -0.2431,0.75964 -0.15834,0 -0.24557,-0.12632 -0.24726,-0.75964 h -3.4431 z"
       sodipodi:nodetypes="ccccccccc" />
    <path
       d="m 118.4986,250.14306 c 0,0.0111 0,0.0225 0,0.0341 0,0.40217 -0.32597,0.72814 -0.72814,0.72814 -0.40216,0 -0.72813,-0.32597 -0.72813,-0.72814 0,-0.0119 0,-0.023 0,-0.0341 h -2.44502 v 6.35 h 6.35 v -6.35 z m -0.87075,5.67029 -0.3093,-1.53009 h -0.005 l -0.33443,1.53009 h -0.42624 l -0.4826,-2.24817 h 0.42068 l 0.28787,1.53009 h 0.005 l 0.34687,-1.53009 h 0.39344 l 0.31141,1.54887 h 0.005 l 0.32861,-1.54887 h 0.41302 l -0.53631,2.24817 z m 2.31643,0 -0.1434,-0.50033 h -0.75698 l -0.11033,0.50033 h -0.42069 l 0.54399,-2.24817 h 0.66384 l 0.66145,2.24817 z m -0.63421,-1.69413 -0.18362,0.82497 h 0.57124 l -0.21061,-0.82497 z"
       id="path1792"
       style="stroke:none;stroke-width:0.265;stroke-miterlimit:4;stroke-dasharray:none;stroke-opacity:1;paint-order:markers stroke fill" />
  </g>
</svg>
